# xmcd
#
# Track frame offsets: 
#        150
#        16399
#        41167
#        62745
#        85128
#        103070
#        119807
#        144773
#        164402
#        180253
#        196477
#
# Disc length: 2865 seconds
#
# Revision: 0
# Processed by: cddbd v1.5.2PL0 Copyright (c) Steve Scherf et al.
# Submitted via: ExactAudioCopy v1.3
#
DISCID=940b2f0b
DTITLE=Finis Tasby - Snap Your Fingers
DYEAR=2013
DGENRE=Blues
TTITLE0=Don't Make Me Pay
TTITLE1=Rockin In The Same Old Boat
TTITLE2=It's A Man Down There
TTITLE3=Rainy Night In Georgia
TTITLE4=People Sure Act Funny
TTITLE5=Blue Shadows
TTITLE6=Ghetto Woman
TTITLE7=Up And Down World
TTITLE8=Snap Your Fingers
TTITLE9=Worried Life Blues
TTITLE10=Thank You Baby
EXTD=
EXTT0=
EXTT1=
EXTT2=
EXTT3=
EXTT4=
EXTT5=
EXTT6=
EXTT7=
EXTT8=
EXTT9=
EXTT10=
PLAYORDER=
